<?xml version="1.0" standalone="no"?>
<!DOCTYPE svg PUBLIC "-//W3C//DTD SVG 20010904//EN"
 "http://www.w3.org/TR/2001/REC-SVG-20010904/DTD/svg10.dtd">
<svg version="1.0" xmlns="http://www.w3.org/2000/svg"
 width="800.000000pt" height="800.000000pt" viewBox="0 0 800.000000 800.000000"
 preserveAspectRatio="xMidYMid meet">
<metadata>
Created by potrace 1.11, written by Peter Selinger 2001-2013
</metadata>
<g transform="translate(0.000000,800.000000) scale(0.100000,-0.100000)"
fill="#000000" stroke="none">
<path d="M3928 7660 c-51 -31 -106 -63 -183 -105 -27 -15 -66 -38 -85 -50 -19
-12 -132 -77 -250 -145 -210 -121 -815 -469 -855 -492 -75 -44 -331 -193 -435
-253 -302 -174 -458 -264 -490 -284 -19 -11 -41 -24 -49 -27 -7 -4 -50 -28
-95 -54 -44 -26 -219 -127 -389 -225 l-307 -178 2 -1844 3 -1845 45 -25 c25
-14 146 -84 270 -156 189 -109 403 -232 535 -307 17 -9 68 -40 115 -67 47 -28
103 -61 125 -73 22 -12 141 -81 265 -153 124 -72 255 -148 292 -169 37 -21 82
-46 100 -57 40 -23 275 -159 573 -331 121 -70 236 -137 255 -147 64 -36 544
-315 575 -333 l30 -19 105 61 c58 33 120 69 138 79 38 22 158 91 217 124 22
13 81 46 130 75 50 29 106 61 125 72 19 11 125 72 235 136 110 63 301 174 425
245 124 72 293 169 375 217 83 47 213 123 290 167 447 258 784 453 815 472 19
11 42 24 50 28 8 3 32 17 53 30 21 13 55 34 75 45 20 12 55 32 77 45 22 12 50
27 62 32 l22 10 0 925 1 926 -774 0 -773 0 0 -475 c0 -262 -2 -477 -4 -479 -2
-2 -249 -146 -549 -319 -300 -173 -559 -323 -577 -333 -18 -11 -99 -57 -180
-104 -81 -47 -172 -100 -203 -118 -30 -17 -72 -41 -93 -53 l-39 -20 -91 54
c-1174 687 -1518 887 -1528 887 -12 0 -11 -35 -14 550 -2 283 -4 697 -5 920
-1 223 -2 412 -1 421 1 14 222 147 446 270 17 9 291 166 609 348 318 182 582
331 586 331 3 0 107 -58 229 -130 123 -71 224 -130 226 -130 2 0 61 -34 131
-76 143 -84 197 -115 264 -152 25 -13 52 -29 60 -36 8 -6 29 -18 45 -26 17 -8
53 -29 82 -47 29 -18 54 -33 56 -33 2 0 80 -44 173 -98 158 -92 197 -114 299
-172 22 -12 44 -26 50 -31 23 -22 18 -24 465 236 30 17 100 58 155 90 55 32
112 66 127 76 14 11 29 19 32 19 3 0 130 73 283 163 153 90 323 190 378 222
151 88 143 77 83 111 -55 31 -62 35 -183 105 -285 166 -537 312 -710 411 -110
63 -346 200 -525 303 -309 179 -1071 619 -1135 655 -16 10 -84 49 -150 87
-259 151 -438 253 -439 252 0 0 -22 -13 -48 -29z"/>
<path d="M3679 4786 c-162 -94 -347 -201 -410 -238 l-115 -67 1 -475 c0 -261
3 -477 5 -479 3 -2 37 -22 75 -44 142 -80 720 -416 731 -424 6 -5 86 35 206
105 108 62 202 116 210 120 7 4 22 12 33 19 11 7 58 34 105 61 167 96 275 160
280 167 3 4 5 219 5 479 l0 471 -70 41 c-215 126 -264 154 -300 174 -22 12
-107 61 -190 109 -82 48 -166 97 -185 107 -19 11 -39 23 -45 28 -5 4 -17 9
-25 12 -8 3 -146 -70 -311 -166z"/>
</g>
</svg>
